<?xml version="1.0" encoding="iso-8859-1"?>
<!-- Generator: Adobe Illustrator 16.0.0, SVG Export Plug-In . SVG Version: 6.00 Build 0)  -->
<!DOCTYPE svg PUBLIC "-//W3C//DTD SVG 1.1//EN" "http://www.w3.org/Graphics/SVG/1.1/DTD/svg11.dtd">
<svg version="1.1" id="Capa_1" xmlns="http://www.w3.org/2000/svg" xmlns:xlink="http://www.w3.org/1999/xlink" x="0px" y="0px"
	 width="67.976px" height="67.976px" viewBox="0 0 67.976 67.976" style="enable-background:new 0 0 67.976 67.976;"
	 xml:space="preserve">
<g>
	<g>
		<path d="M64.882,28.231c-2.912-3.584-5.602-6.942-8.514-10.526c-0.672-0.896-1.566-1.346-2.912-1.12
			c-1.118,0.224-1.79,0.896-2.017,2.016c-1.344,4.256-2.688,8.736-3.808,12.992c-0.673,2.464,0.896,4.479,3.584,4.032
			c0.672-0.227,1.566-0.227,2.238-0.448c1.567,8.063-2.238,15.681-6.72,19.265c-0.225-0.225-0.225-0.447-0.448-0.672
			C39.12,41.45,31.951,28.904,24.783,16.585c-0.224-0.448-0.224-0.896,0-1.345c2.465-3.583,2.017-8.512-0.896-11.871
			c-2.912-3.36-7.84-4.257-11.872-2.465c-4.256,2.24-6.496,7.169-5.152,11.648c1.12,4.479,5.376,7.616,10.08,7.392
			c0.672,0,0.896,0.226,1.12,0.673c7.168,12.319,14.337,24.64,21.505,37.184c0.225,0.225,0.225,0.448,0.447,0.672
			c-7.615,2.912-16.128,0.448-20.608-3.808c0.448-0.448,0.896-1.12,1.345-1.568c1.792-2.016,0.896-4.479-1.568-5.15
			c-4.256-1.12-8.736-2.018-12.992-3.138c-1.12-0.224-2.24-0.224-3.136,0.896c-0.896,0.896-0.896,2.016-0.448,3.136
			c1.568,4.032,3.136,8.288,4.704,12.32c0.896,2.237,3.36,2.688,5.152,1.12c0.447-0.448,0.896-1.12,1.344-1.568
			c10.528,8.062,21.729,9.854,33.376,3.136c11.648-6.718,15.681-17.472,13.89-30.463c0.672-0.224,1.345-0.224,2.017-0.448
			C65.552,32.487,66.449,30.023,64.882,28.231z M18.512,13.671c-2.017,1.12-4.48,0.448-5.601-1.344
			c-1.119-2.017-0.447-4.48,1.345-5.601c2.016-1.12,4.479-0.447,5.6,1.568C20.976,9.863,20.304,12.551,18.512,13.671z"/>
	</g>
</g>
<g>
</g>
<g>
</g>
<g>
</g>
<g>
</g>
<g>
</g>
<g>
</g>
<g>
</g>
<g>
</g>
<g>
</g>
<g>
</g>
<g>
</g>
<g>
</g>
<g>
</g>
<g>
</g>
<g>
</g>
</svg>
