<?xml version="1.0" encoding="iso-8859-1"?>
<!-- Generator: Adobe Illustrator 18.0.0, SVG Export Plug-In . SVG Version: 6.00 Build 0)  -->
<!DOCTYPE svg PUBLIC "-//W3C//DTD SVG 1.1//EN" "http://www.w3.org/Graphics/SVG/1.1/DTD/svg11.dtd">
<svg version="1.1" id="Capa_1" xmlns="http://www.w3.org/2000/svg" xmlns:xlink="http://www.w3.org/1999/xlink" x="0px" y="0px"
	 viewBox="0 0 466.847 466.847" style="enable-background:new 0 0 466.847 466.847;" xml:space="preserve">
<g>
	<path style="fill:#020202;" d="M425.554,34.531H357.24v30.773h68.314c3.729,0,6.753,3.042,6.753,6.768v260.773
		c0,3.728-3.024,6.755-6.753,6.755H41.293c-3.729,0-6.753-3.026-6.753-6.755V72.072c0-3.726,3.024-6.768,6.753-6.768h68.314V34.531
		H41.293c-20.687,0-37.525,16.854-37.525,37.541v260.773c0,20.689,16.839,37.527,37.525,37.527h128.805v50.315h-20.32
		c-12.742,0-23.072,10.344-23.072,23.072c0,12.741,10.33,23.087,23.072,23.087h167.294c12.743,0,23.071-10.346,23.071-23.087
		c0-12.729-10.328-23.072-23.071-23.072h-20.337v-50.315h128.82c20.689,0,37.525-16.839,37.525-37.527V72.072
		C463.08,51.385,446.243,34.531,425.554,34.531z"/>
	<path style="fill:#020202;" d="M169.089,301.142h128.668c15.845,0,28.71-12.865,28.71-28.71V28.709
		C326.467,12.88,313.602,0,297.757,0H169.089c-15.844,0-28.71,12.88-28.71,28.709v243.723
		C140.379,288.276,153.246,301.142,169.089,301.142z M219.405,271.728c0-7.731,6.265-14.011,13.995-14.011
		c7.762,0,14.042,6.279,14.042,14.011c0,7.731-6.28,14.012-14.042,14.012C225.669,285.74,219.405,279.46,219.405,271.728z
		 M171.138,30.773H295.71v215.194H171.138V30.773z"/>
</g>
<g>
</g>
<g>
</g>
<g>
</g>
<g>
</g>
<g>
</g>
<g>
</g>
<g>
</g>
<g>
</g>
<g>
</g>
<g>
</g>
<g>
</g>
<g>
</g>
<g>
</g>
<g>
</g>
<g>
</g>
</svg>
