<?xml version="1.0" ?><svg height="64" viewBox="0 0 64 64" width="64" xmlns="http://www.w3.org/2000/svg"><title/><g><path d="M23.0005,43a1,1,0,0,1-.4478-1.8945C23.7036,40.53,27.4585,38.1729,27.4585,32s-3.7549-8.53-4.9058-9.1055a1,1,0,0,1,.8321-1.8174l24,10a1,1,0,0,1,0,1.8458l-24,10A.99.99,0,0,1,23.0005,43Zm4.6318-17.9863A13.0224,13.0224,0,0,1,29.4585,32a13.0224,13.0224,0,0,1-1.8262,6.9863L44.4,32Z"/><path d="M17,41a1,1,0,0,1-1-1V24a1,1,0,0,1,1.2749-.9614C17.59,23.1284,25,25.3223,25,32s-7.41,8.8716-7.7251,8.9614A.9982.9982,0,0,1,17,41Zm1-15.541V38.55c1.8384-.833,5-2.81,5-6.55C23,28.2979,19.8345,26.3037,18,25.459Z"/><path d="M32,59A27,27,0,1,1,59,32,27.0308,27.0308,0,0,1,32,59ZM32,7A25,25,0,1,0,57,32,25.0281,25.0281,0,0,0,32,7Zm0,48A23,23,0,1,1,55,32,23.0262,23.0262,0,0,1,32,55Zm0-44A21,21,0,1,0,53,32,21.0236,21.0236,0,0,0,32,11Z"/></g></svg>