<svg id="icons" enable-background="new 0 0 64 64" height="512" viewBox="0 0 64 64" width="512" xmlns="http://www.w3.org/2000/svg"><path d="m63 9h-62v-2c0-1.11.89-2 2-2h58c1.11 0 2 .89 2 2z" fill="#ccd1d9"/><path d="m34 45h11v3h-11z" fill="#5d9cec"/><path d="m16.52 47.53-2.52 3.47h-5l5-7z" fill="#545c66"/><path d="m22 40 8 11h-16l2.52-3.47z" fill="#656d78"/><path d="m15 27c1.11 0 2 .9 2 2s-.89 2-2 2c-1.1 0-2-.9-2-2s.9-2 2-2z" fill="#ffce54"/><path d="m30 23v28l-8-11-5.48 7.53-2.52-3.53-5 7h-.01v-28zm-13 6c0-1.1-.89-2-2-2-1.1 0-2 .9-2 2s.9 2 2 2c1.11 0 2-.9 2-2z" fill="#5d9cec"/><path d="m63 9v50h-62v-50zm-4 46v-35.99h-24v-6.01h-15-15v6.01 35.99z" fill="#e6e9ed"/><path d="m20 13h15v6.01h-15z" fill="#f5f7fa"/><path d="m5 13h15v6.01h15 24v35.99h-54v-35.99zm40 35v-3h-11v3zm-15 3v-28h-21.01v28h.01 5z" fill="#fff"/><path d="m1 7.998c-.553 0-1-.447-1-1 0-1.654 1.346-3 3-3 .553 0 1 .447 1 1s-.447 1-1 1c-.552 0-1 .448-1 1 0 .553-.447 1-1 1z"/><path d="m63 7.998c-.553 0-1-.447-1-1 0-.552-.448-1-1-1-.553 0-1-.447-1-1s.447-1 1-1c1.654 0 3 1.346 3 3 0 .553-.447 1-1 1z"/><path d="m61 5.998h-58c-.553 0-1-.447-1-1s.447-1 1-1h58c.553 0 1 .447 1 1s-.447 1-1 1z"/><path d="m4.03 7.998c-.553 0-1.005-.447-1.005-1s.442-1 .994-1h.011c.552 0 1 .447 1 1s-.448 1-1 1z"/><path d="m7.029 7.998c-.553 0-1.005-.447-1.005-1s.442-1 .994-1h.011c.552 0 1 .447 1 1s-.448 1-1 1z"/><path d="m10.032 7.998c-.553 0-1.005-.447-1.005-1s.442-1 .994-1h.011c.552 0 1 .447 1 1s-.448 1-1 1z"/><path d="m1 60.002c-.553 0-1-.447-1-1v-52.004c0-.553.447-1 1-1s1 .447 1 1v52.004c0 .553-.447 1-1 1z"/><path d="m63 60.002c-.553 0-1-.447-1-1v-52.004c0-.553.447-1 1-1s1 .447 1 1v52.004c0 .553-.447 1-1 1z"/><path d="m63 9.998h-62c-.553 0-1-.447-1-1s.447-1 1-1h62c.553 0 1 .447 1 1s-.447 1-1 1z"/><path d="m63 60.002h-62c-.553 0-1-.447-1-1s.447-1 1-1h62c.553 0 1 .447 1 1s-.447 1-1 1z"/><path d="m58.999 55.997h-53.998c-.553 0-1-.447-1-1v-35.993c0-.553.447-1 1-1s1 .447 1 1v34.993h51.998v-34.993c0-.553.447-1 1-1s1 .447 1 1v35.993c0 .553-.447 1-1 1z"/><path d="m20.002 20.004c-.553 0-1-.447-1-1v-5.007h-13.001v5.007c0 .553-.447 1-1 1s-1-.447-1-1v-6.007c0-.553.447-1 1-1h15.001c.553 0 1 .447 1 1v6.007c0 .553-.447 1-1 1z"/><path d="m35.003 20.004c-.553 0-1-.447-1-1v-5.007h-13.001v5.007c0 .553-.447 1-1 1s-1-.447-1-1v-6.007c0-.553.447-1 1-1h15.001c.553 0 1 .447 1 1v6.007c0 .553-.447 1-1 1z"/><path d="m58.999 20.004h-38.997c-.553 0-1-.447-1-1s.447-1 1-1h38.997c.553 0 1 .447 1 1s-.447 1-1 1z"/><path d="m31.003 17h-7c-.553 0-1-.447-1-1s.447-1 1-1h7c.553 0 1 .447 1 1s-.447 1-1 1z"/><path d="m15.988 17h-7c-.553 0-1-.447-1-1s.447-1 1-1h7c.553 0 1 .447 1 1s-.447 1-1 1z"/><path d="m29.997 52.002h-21.004c-.553 0-1-.447-1-1v-28.004c0-.553.447-1 1-1h21.004c.553 0 1 .447 1 1v28.004c0 .553-.447 1-1 1zm-20.004-2h19.004v-26.004h-19.004z"/><path d="m30.001 52c-.31 0-.614-.143-.81-.412l-8-11.002c-.325-.446-.227-1.072.221-1.396.448-.325 1.072-.227 1.396.221l8 11.002c.325.446.227 1.072-.221 1.396-.177.129-.382.191-.586.191z"/><path d="m13.999 52c-.204 0-.409-.063-.587-.191-.447-.324-.546-.95-.221-1.396l8-11.002c.324-.447.948-.546 1.396-.221.447.324.546.95.221 1.396l-8 11.002c-.195.269-.499.412-.809.412z"/><path d="m16.522 48.529c-.313 0-.619-.146-.814-.419l-2.521-3.53c-.321-.449-.217-1.074.232-1.395s1.073-.217 1.395.232l2.521 3.53c.321.449.217 1.074-.232 1.395-.176.127-.379.187-.581.187z"/><path d="m8.999 51.999c-.201 0-.404-.061-.58-.187-.449-.32-.554-.945-.232-1.395l5-7c.321-.448.946-.553 1.395-.232.449.32.554.945.232 1.395l-5 7c-.196.274-.502.419-.815.419z"/><path d="m15.001 31.998c-1.654 0-3-1.346-3-3s1.346-3 3-3 3 1.346 3 3-1.346 3-3 3zm0-4c-.552 0-1 .448-1 1s.448 1 1 1 1-.448 1-1-.448-1-1-1z"/><path d="m55 26.992h-20.999c-.553 0-1-.447-1-1s.447-1 1-1h20.999c.553 0 1 .447 1 1s-.447 1-1 1z"/><path d="m55 29.992h-20.999c-.553 0-1-.447-1-1s.447-1 1-1h20.999c.553 0 1 .447 1 1s-.447 1-1 1z"/><path d="m55 32.992h-20.999c-.553 0-1-.447-1-1s.447-1 1-1h20.999c.553 0 1 .447 1 1s-.447 1-1 1z"/><path d="m55 35.992h-20.999c-.553 0-1-.447-1-1s.447-1 1-1h20.999c.553 0 1 .447 1 1s-.447 1-1 1z"/><path d="m55 38.992h-20.999c-.553 0-1-.447-1-1s.447-1 1-1h20.999c.553 0 1 .447 1 1s-.447 1-1 1z"/><path d="m44.99 41.992h-10.989c-.553 0-1-.447-1-1s.447-1 1-1h10.989c.553 0 1 .447 1 1s-.447 1-1 1z"/><path d="m45 48.997h-11c-.553 0-1-.447-1-1v-3c0-.553.447-1 1-1h11c.553 0 1 .447 1 1v3c0 .553-.447 1-1 1zm-10-2h9v-1h-9z"/></svg>